<svg width="167" height="168" viewBox="0 0 167 168" fill="none" xmlns="http://www.w3.org/2000/svg">
<g opacity="0.9" filter="url(#filter0_d_18_125)">
<path opacity="0.9" d="M9.36526 90.7237L72.2731 153.657C72.5652 153.948 72.7969 154.295 72.955 154.676C73.1131 155.057 73.1945 155.466 73.1945 155.879C73.1945 156.291 73.1131 156.7 72.955 157.081C72.7969 157.463 72.5652 157.809 72.2731 158.101C71.9814 158.393 71.6351 158.624 71.2538 158.783C70.8725 158.941 70.4638 159.022 70.0511 159.022C69.6383 159.022 69.2296 158.941 68.8484 158.783C68.4671 158.624 68.1207 158.393 67.8291 158.101L4.92129 95.1677C4.6292 94.8761 4.39748 94.5297 4.23937 94.1484C4.08126 93.7672 3.99988 93.3585 3.99988 92.9457C3.99988 92.533 4.08126 92.1243 4.23937 91.743C4.39748 91.3617 4.6292 91.0154 4.92129 90.7237C5.21292 90.4316 5.55928 90.1999 5.94055 90.0418C6.32182 89.8837 6.73052 89.8023 7.14328 89.8023C7.55603 89.8023 7.96473 89.8837 8.346 90.0418C8.72727 90.1999 9.07363 90.4316 9.36526 90.7237Z" fill="url(#paint0_linear_18_125)"/>
<path opacity="0.9" d="M17.7867 121.591L41.401 145.21C41.6933 145.502 41.9251 145.849 42.0833 146.231C42.2414 146.612 42.3229 147.021 42.3229 147.435C42.3229 147.848 42.2414 148.257 42.0833 148.639C41.9251 149.02 41.6933 149.367 41.401 149.659C40.8107 150.247 40.0118 150.576 39.179 150.576C38.3462 150.576 37.5473 150.247 36.957 149.659L13.3378 126.04C12.75 125.449 12.42 124.649 12.42 123.815C12.42 122.982 12.75 122.182 13.3378 121.591C13.9289 121.003 14.7286 120.673 15.5622 120.673C16.3959 120.673 17.1956 121.003 17.7867 121.591Z" fill="url(#paint1_linear_18_125)"/>
<path opacity="0.9" d="M9.36526 68.2731L94.7237 153.657C95.3111 154.247 95.6409 155.046 95.6409 155.879C95.6409 156.711 95.3111 157.51 94.7237 158.101C94.432 158.393 94.0857 158.624 93.7044 158.783C93.3231 158.941 92.9144 159.022 92.5017 159.022C92.0889 159.022 91.6802 158.941 91.299 158.783C90.9177 158.624 90.5713 158.393 90.2797 158.101L4.92129 72.7171C4.6292 72.4255 4.39748 72.0791 4.23937 71.6979C4.08126 71.3166 3.99988 70.9079 3.99988 70.4951C3.99988 70.0824 4.08126 69.6737 4.23937 69.2924C4.39748 68.9111 4.6292 68.5648 4.92129 68.2731C5.51158 67.6857 6.31048 67.3559 7.14328 67.3559C7.97607 67.3559 8.77498 67.6857 9.36526 68.2731Z" fill="url(#paint2_linear_18_125)"/>
<path opacity="0.9" d="M14.045 50.5123L112.464 148.952C112.757 149.243 112.988 149.59 113.146 149.971C113.304 150.352 113.386 150.761 113.386 151.174C113.386 151.587 113.304 151.995 113.146 152.377C112.988 152.758 112.757 153.104 112.464 153.396C112.173 153.688 111.826 153.92 111.445 154.078C111.064 154.236 110.655 154.317 110.242 154.317C109.83 154.317 109.421 154.236 109.04 154.078C108.658 153.92 108.312 153.688 108.021 153.396L9.60098 54.9563C9.30889 54.6646 9.07716 54.3183 8.91906 53.937C8.76095 53.5557 8.67957 53.147 8.67957 52.7343C8.67957 52.3215 8.76095 51.9128 8.91906 51.5315C9.07716 51.1503 9.30889 50.8039 9.60098 50.5123C9.89261 50.2202 10.239 49.9885 10.6202 49.8304C11.0015 49.6723 11.4102 49.5909 11.823 49.5909C12.2357 49.5909 12.6444 49.6723 13.0257 49.8304C13.407 49.9885 13.7534 50.2202 14.045 50.5123Z" fill="url(#paint3_linear_18_125)"/>
<path opacity="0.9" d="M21.7291 35.7459L127.251 141.268C127.838 141.858 128.168 142.657 128.168 143.49C128.168 144.322 127.838 145.121 127.251 145.712C126.959 146.004 126.613 146.235 126.232 146.394C125.85 146.552 125.442 146.633 125.029 146.633C124.616 146.633 124.207 146.552 123.826 146.394C123.445 146.235 123.099 146.004 122.807 145.712L17.2851 40.1948C16.9929 39.9028 16.761 39.556 16.6029 39.1743C16.4447 38.7926 16.3633 38.3835 16.3633 37.9703C16.3633 37.5572 16.4447 37.1481 16.6029 36.7664C16.761 36.3847 16.9929 36.0379 17.2851 35.7459C17.8754 35.1584 18.6743 34.8286 19.5071 34.8286C20.3399 34.8286 21.1388 35.1584 21.7291 35.7459Z" fill="url(#paint4_linear_18_125)"/>
<path opacity="0.9" d="M31.8258 23.382L139.615 131.171C139.907 131.463 140.139 131.809 140.297 132.19C140.455 132.571 140.536 132.98 140.536 133.393C140.536 133.806 140.455 134.214 140.297 134.596C140.139 134.977 139.907 135.323 139.615 135.615C139.323 135.907 138.977 136.139 138.596 136.297C138.214 136.455 137.806 136.536 137.393 136.536C136.98 136.536 136.571 136.455 136.19 136.297C135.809 136.139 135.462 135.907 135.171 135.615L27.3819 27.8259C27.0898 27.5343 26.858 27.188 26.6999 26.8067C26.5418 26.4254 26.4604 26.0167 26.4604 25.604C26.4604 25.1912 26.5418 24.7825 26.6999 24.4012C26.858 24.02 27.0898 23.6736 27.3819 23.382C27.6735 23.0899 28.0199 22.8582 28.4011 22.7C28.7824 22.5419 29.1911 22.4606 29.6038 22.4606C30.0166 22.4606 30.4253 22.5419 30.8066 22.7C31.1878 22.8582 31.5342 23.0899 31.8258 23.382Z" fill="url(#paint5_linear_18_125)"/>
<path opacity="0.9" d="M44.1899 13.2852L149.712 118.802C150.004 119.094 150.236 119.441 150.394 119.823C150.552 120.204 150.634 120.613 150.634 121.027C150.634 121.44 150.552 121.849 150.394 122.23C150.236 122.612 150.004 122.959 149.712 123.251C149.121 123.838 148.323 124.168 147.49 124.168C146.657 124.168 145.858 123.838 145.268 123.251L39.7359 17.7292C39.1484 17.1389 38.8186 16.34 38.8186 15.5072C38.8186 14.6744 39.1484 13.8755 39.7359 13.2852C40.0277 12.9916 40.3747 12.7586 40.7569 12.5996C41.1391 12.4406 41.5489 12.3588 41.9629 12.3588C42.3768 12.3588 42.7867 12.4406 43.1689 12.5996C43.5511 12.7586 43.8981 12.9916 44.1899 13.2852Z" fill="url(#paint6_linear_18_125)"/>
<path opacity="0.9" d="M58.9562 5.60106L157.396 104.041C157.688 104.332 157.92 104.679 158.078 105.06C158.236 105.441 158.317 105.85 158.317 106.263C158.317 106.675 158.236 107.084 158.078 107.465C157.92 107.847 157.688 108.193 157.396 108.485C157.104 108.777 156.758 109.008 156.376 109.167C155.995 109.325 155.587 109.406 155.174 109.406C154.761 109.406 154.352 109.325 153.971 109.167C153.59 109.008 153.243 108.777 152.952 108.485L54.5122 10.045C54.2201 9.7534 53.9884 9.40704 53.8303 9.02577C53.6722 8.6445 53.5908 8.23579 53.5908 7.82304C53.5908 7.41029 53.6722 7.00159 53.8303 6.62031C53.9884 6.23904 54.2201 5.89269 54.5122 5.60106C54.8039 5.30897 55.1502 5.07723 55.5315 4.91913C55.9128 4.76102 56.3215 4.67964 56.7342 4.67964C57.147 4.67964 57.5557 4.76102 57.9369 4.91913C58.3182 5.07723 58.6646 5.30897 58.9562 5.60106Z" fill="url(#paint7_linear_18_125)"/>
<path opacity="0.9" d="M76.7171 0.921339L162.075 86.2798C162.368 86.5714 162.599 86.9178 162.757 87.299C162.916 87.6803 162.997 88.089 162.997 88.5018C162.997 88.9145 162.916 89.3232 162.757 89.7045C162.599 90.0858 162.368 90.4321 162.075 90.7237C161.485 91.3112 160.686 91.641 159.853 91.641C159.021 91.641 158.222 91.3112 157.632 90.7237L72.2731 5.36531C71.6856 4.77503 71.3558 3.97612 71.3558 3.14332C71.3558 2.31053 71.6856 1.51162 72.2731 0.921339C72.5647 0.629247 72.9111 0.397513 73.2923 0.239408C73.6736 0.081303 74.0823 -7.62939e-05 74.4951 -7.62939e-05C74.9078 -7.62939e-05 75.3165 0.081303 75.6978 0.239408C76.0791 0.397513 76.4254 0.629247 76.7171 0.921339Z" fill="url(#paint8_linear_18_125)"/>
<path opacity="0.9" d="M99.1676 0.921339L162.075 63.8292C162.368 64.1208 162.599 64.4671 162.757 64.8484C162.915 65.2297 162.997 65.6384 162.997 66.0511C162.997 66.4639 162.915 66.8726 162.757 67.2539C162.599 67.6351 162.368 67.9815 162.075 68.2731C161.784 68.5652 161.437 68.797 161.056 68.9551C160.675 69.1132 160.266 69.1945 159.853 69.1945C159.441 69.1945 159.032 69.1132 158.651 68.9551C158.269 68.797 157.923 68.5652 157.631 68.2731L94.7237 5.36531C94.4316 5.07369 94.1998 4.72732 94.0417 4.34605C93.8836 3.96478 93.8022 3.55608 93.8022 3.14332C93.8022 2.73057 93.8836 2.32187 94.0417 1.9406C94.1998 1.55933 94.4316 1.21297 94.7237 0.921339C95.0153 0.629247 95.3616 0.397513 95.7429 0.239408C96.1242 0.081303 96.5329 -7.62939e-05 96.9456 -7.62939e-05C97.3584 -7.62939e-05 97.7671 0.081303 98.1484 0.239408C98.5296 0.397513 98.876 0.629247 99.1676 0.921339Z" fill="url(#paint9_linear_18_125)"/>
<path opacity="0.9" d="M130.02 9.33781L153.639 32.9571C154.227 33.5482 154.557 34.348 154.557 35.1816C154.557 36.0152 154.227 36.8149 153.639 37.4061C153.048 37.9938 152.248 38.3238 151.415 38.3238C150.581 38.3238 149.781 37.9938 149.19 37.4061L125.576 13.7868C125.284 13.4947 125.052 13.148 124.894 12.7663C124.735 12.3846 124.654 11.9755 124.654 11.5623C124.654 11.1491 124.735 10.74 124.894 10.3583C125.052 9.97664 125.284 9.62986 125.576 9.33781C126.166 8.75034 126.965 8.42054 127.798 8.42054C128.631 8.42054 129.429 8.75034 130.02 9.33781Z" fill="url(#paint10_linear_18_125)"/>
</g>
<defs>
<filter id="filter0_d_18_125" x="-0.00012207" y="-7.62939e-05" width="166.997" height="167.022" filterUnits="userSpaceOnUse" color-interpolation-filters="sRGB">
<feFlood flood-opacity="0" result="BackgroundImageFix"/>
<feColorMatrix in="SourceAlpha" type="matrix" values="0 0 0 0 0 0 0 0 0 0 0 0 0 0 0 0 0 0 127 0" result="hardAlpha"/>
<feOffset dy="4"/>
<feGaussianBlur stdDeviation="2"/>
<feComposite in2="hardAlpha" operator="out"/>
<feColorMatrix type="matrix" values="0 0 0 0 0 0 0 0 0 0 0 0 0 0 0 0 0 0 0.25 0"/>
<feBlend mode="normal" in2="BackgroundImageFix" result="effect1_dropShadow_18_125"/>
<feBlend mode="normal" in="SourceGraphic" in2="effect1_dropShadow_18_125" result="shape"/>
</filter>
<linearGradient id="paint0_linear_18_125" x1="38.5972" y1="89.8023" x2="38.5972" y2="159.022" gradientUnits="userSpaceOnUse">
<stop stop-color="#FF449F"/>
<stop offset="1" stop-color="#FF449F" stop-opacity="0"/>
</linearGradient>
<linearGradient id="paint1_linear_18_125" x1="27.3715" y1="120.673" x2="27.3715" y2="150.576" gradientUnits="userSpaceOnUse">
<stop stop-color="#FF449F"/>
<stop offset="1" stop-color="#FF449F" stop-opacity="0"/>
</linearGradient>
<linearGradient id="paint2_linear_18_125" x1="49.8204" y1="67.3559" x2="49.8204" y2="159.022" gradientUnits="userSpaceOnUse">
<stop stop-color="#FF449F"/>
<stop offset="1" stop-color="#FF449F" stop-opacity="0"/>
</linearGradient>
<linearGradient id="paint3_linear_18_125" x1="61.0327" y1="49.5909" x2="61.0327" y2="154.317" gradientUnits="userSpaceOnUse">
<stop stop-color="#FF449F"/>
<stop offset="1" stop-color="#FF449F" stop-opacity="0"/>
</linearGradient>
<linearGradient id="paint4_linear_18_125" x1="72.2657" y1="34.8286" x2="72.2657" y2="146.633" gradientUnits="userSpaceOnUse">
<stop stop-color="#FF449F"/>
<stop offset="1" stop-color="#FF449F" stop-opacity="0"/>
</linearGradient>
<linearGradient id="paint5_linear_18_125" x1="83.4983" y1="22.4606" x2="83.4983" y2="136.536" gradientUnits="userSpaceOnUse">
<stop stop-color="#FF449F"/>
<stop offset="1" stop-color="#FF449F" stop-opacity="0"/>
</linearGradient>
<linearGradient id="paint6_linear_18_125" x1="94.7261" y1="12.3588" x2="94.7261" y2="124.168" gradientUnits="userSpaceOnUse">
<stop stop-color="#FF449F"/>
<stop offset="1" stop-color="#FF449F" stop-opacity="0"/>
</linearGradient>
<linearGradient id="paint7_linear_18_125" x1="105.954" y1="4.67964" x2="105.954" y2="109.406" gradientUnits="userSpaceOnUse">
<stop stop-color="#FF449F"/>
<stop offset="1" stop-color="#FF449F" stop-opacity="0"/>
</linearGradient>
<linearGradient id="paint8_linear_18_125" x1="117.176" y1="-7.62939e-05" x2="117.176" y2="91.641" gradientUnits="userSpaceOnUse">
<stop stop-color="#FF449F"/>
<stop offset="1" stop-color="#FF449F" stop-opacity="0"/>
</linearGradient>
<linearGradient id="paint9_linear_18_125" x1="128.4" y1="-7.62939e-05" x2="128.4" y2="69.1945" gradientUnits="userSpaceOnUse">
<stop stop-color="#FF449F"/>
<stop offset="1" stop-color="#FF449F" stop-opacity="0"/>
</linearGradient>
<linearGradient id="paint10_linear_18_125" x1="139.605" y1="8.42054" x2="139.605" y2="38.3238" gradientUnits="userSpaceOnUse">
<stop stop-color="#FF449F"/>
<stop offset="1" stop-color="#FF449F" stop-opacity="0"/>
</linearGradient>
</defs>
</svg>
