<svg width="345" height="304" viewBox="0 0 345 304" fill="none" xmlns="http://www.w3.org/2000/svg">
<path d="M345 272.284H0V272.456H345V272.284Z" fill="#EBEBEB"/>
<path d="M299.315 279.626H276.462V279.799H299.315V279.626Z" fill="#EBEBEB"/>
<path d="M216.018 279.543H210.022V279.716H216.018V279.543Z" fill="#EBEBEB"/>
<path d="M310.431 283.387H297.19V283.56H310.431V283.387Z" fill="#EBEBEB"/>
<path d="M79.074 285.679H49.2729V285.851H79.074V285.679Z" fill="#EBEBEB"/>
<path d="M76.5141 278.143H72.1464V278.315H76.5141V278.143Z" fill="#EBEBEB"/>
<path d="M171.431 278.881H129.41V279.053H171.431V278.881Z" fill="#EBEBEB"/>
<path d="M163.53 241.505H30.2979C29.2541 241.503 28.2538 241.087 27.5164 240.349C26.779 239.61 26.3649 238.609 26.3649 237.565V50.2494C26.374 49.2115 26.7921 48.2191 27.5285 47.4878C28.2649 46.7564 29.2601 46.3452 30.2979 46.3434H163.53C164.575 46.3434 165.577 46.7586 166.316 47.4976C167.055 48.2366 167.47 49.2389 167.47 50.2839V237.565C167.47 238.61 167.055 239.612 166.316 240.351C165.577 241.09 164.575 241.505 163.53 241.505ZM30.2979 46.4815C29.2999 46.4833 28.3434 46.8811 27.6384 47.5875C26.9333 48.294 26.5374 49.2513 26.5374 50.2494V237.565C26.5374 238.563 26.9333 239.52 27.6384 240.227C28.3434 240.933 29.2999 241.331 30.2979 241.333H163.53C164.529 241.331 165.486 240.933 166.192 240.227C166.898 239.521 167.296 238.563 167.297 237.565V50.2494C167.296 49.2507 166.898 48.2933 166.192 47.5871C165.486 46.8809 164.529 46.4833 163.53 46.4815H30.2979Z" fill="#EBEBEB"/>
<path d="M312.784 241.505H179.545C178.501 241.503 177.499 241.088 176.761 240.349C176.022 239.61 175.607 238.609 175.605 237.565V50.2494C175.616 49.2109 176.036 48.2185 176.773 47.4874C177.511 46.7562 178.506 46.3452 179.545 46.3434H312.784C313.82 46.347 314.814 46.7591 315.549 47.4902C316.284 48.2214 316.701 49.2127 316.71 50.2494V237.565C316.71 238.607 316.297 239.608 315.561 240.346C314.825 241.085 313.826 241.502 312.784 241.505ZM179.545 46.4815C178.546 46.4833 177.589 46.8809 176.883 47.5871C176.177 48.2933 175.779 49.2507 175.777 50.2494V237.565C175.779 238.563 176.177 239.521 176.883 240.227C177.589 240.933 178.546 241.331 179.545 241.333H312.784C313.783 241.331 314.74 240.933 315.446 240.227C316.152 239.521 316.549 238.563 316.551 237.565V50.2494C316.549 49.2507 316.152 48.2933 315.446 47.5871C314.74 46.8809 313.783 46.4833 312.784 46.4815H179.545Z" fill="#EBEBEB"/>
<path d="M295.934 74.8654H49.0659V177.615H295.934V74.8654Z" fill="#F0F0F0"/>
<path d="M291.104 172.791V79.703L53.8959 79.703V172.791H291.104Z" fill="#FAFAFA"/>
<path d="M85.1253 172.784L109.455 79.696H127.395L103.065 172.784H85.1253Z" fill="white"/>
<path d="M107.205 172.784L131.535 79.696H139.559L115.23 172.784H107.205Z" fill="white"/>
<path d="M146.466 172.784L170.803 79.696H188.743L164.406 172.784H146.466Z" fill="white"/>
<path d="M191.703 172.784L216.032 79.696H224.064L199.727 172.784H191.703Z" fill="white"/>
<path d="M117.445 172.791V79.703H116.217V172.791H117.445Z" fill="#E0E0E0"/>
<path d="M55.1241 172.791L55.1241 79.703H53.896L53.896 172.791H55.1241Z" fill="#E0E0E0"/>
<path d="M116.217 172.791V79.703H111.387V172.791H116.217Z" fill="#F0F0F0"/>
<path d="M177.33 172.791V79.703H176.102V172.791H177.33Z" fill="#E0E0E0"/>
<path d="M176.102 172.791V79.703H171.272V172.791H176.102Z" fill="#F0F0F0"/>
<path d="M237.243 172.784V79.696H236.015V172.784H237.243Z" fill="#E0E0E0"/>
<path d="M236.015 172.784V79.696H231.185V172.784H236.015Z" fill="#F0F0F0"/>
<path d="M297.162 177.615V74.8654H295.934V177.615H297.162Z" fill="#E0E0E0"/>
<path d="M299.922 67.8122H45.0777C44.7946 67.8104 44.5236 67.6971 44.3234 67.4969C44.1233 67.2967 44.01 67.0257 44.0082 66.7427C44.0082 66.4584 44.1206 66.1856 44.321 65.984C44.5214 65.7823 44.7934 65.6681 45.0777 65.6663H299.922C300.207 65.6681 300.479 65.7823 300.679 65.984C300.879 66.1856 300.992 66.4584 300.992 66.7427C300.99 67.0257 300.877 67.2967 300.677 67.4969C300.476 67.6971 300.205 67.8104 299.922 67.8122Z" fill="#E0E0E0"/>
<g opacity="0.6">
<path opacity="0.6" d="M98.2146 63.5959H46.0782V251.077H98.2146V63.5959Z" fill="#F5F5F5"/>
<path opacity="0.6" d="M74.3268 252.609H69.9591L71.1873 65.1277H73.14L74.3268 252.609Z" fill="#E6E6E6"/>
<path opacity="0.6" d="M59.8575 252.609H57.7461L58.3395 65.1277H59.2848L59.8575 252.609Z" fill="#E6E6E6"/>
<path opacity="0.6" d="M88.8375 252.609H86.7261L87.3195 65.1277H88.2648L88.8375 252.609Z" fill="#E6E6E6"/>
</g>
<g opacity="0.6">
<path opacity="0.6" d="M298.301 63.5959H246.164V251.077H298.301V63.5959Z" fill="#F5F5F5"/>
<path opacity="0.6" d="M266.595 252.609H262.228L263.456 65.1277H265.408L266.595 252.609Z" fill="#E6E6E6"/>
<path opacity="0.6" d="M256.956 252.609H254.852L255.438 65.1277H256.383L256.956 252.609Z" fill="#E6E6E6"/>
<path opacity="0.6" d="M279.264 252.609H277.159L277.753 65.1277H278.691L279.264 252.609Z" fill="#E6E6E6"/>
<path opacity="0.6" d="M290 252.609H287.896L288.482 65.1277H289.427L290 252.609Z" fill="#E6E6E6"/>
</g>
<path d="M224.395 271.11H234.193V214.95H224.395V271.11Z" fill="#E6E6E6"/>
<path d="M110.807 271.11H228.169V214.95H110.807V271.11Z" fill="#F0F0F0"/>
<path d="M225.533 271.111H222.001H115.872V272.284H222.001H225.533H229.128V271.111H225.533Z" fill="#E0E0E0"/>
<path opacity="0.5" d="M114.154 241.125H224.823V218.462H114.154V241.125Z" fill="#FAFAFA"/>
<path opacity="0.5" d="M114.154 267.446H224.823V244.783H114.154V267.446Z" fill="#FAFAFA"/>
<path d="M130.927 229.794C130.927 230.286 130.781 230.768 130.508 231.177C130.234 231.587 129.845 231.906 129.39 232.095C128.935 232.283 128.434 232.333 127.951 232.237C127.467 232.14 127.024 231.903 126.675 231.555C126.327 231.206 126.09 230.763 125.994 230.279C125.897 229.796 125.947 229.295 126.135 228.84C126.324 228.385 126.643 227.996 127.053 227.722C127.462 227.449 127.944 227.303 128.437 227.303C128.764 227.303 129.088 227.367 129.39 227.492C129.692 227.617 129.967 227.801 130.198 228.032C130.429 228.263 130.613 228.538 130.738 228.84C130.863 229.142 130.927 229.466 130.927 229.794Z" fill="#E0E0E0"/>
<path d="M213.024 229.794C213.024 230.286 212.878 230.768 212.604 231.177C212.33 231.587 211.941 231.906 211.486 232.095C211.031 232.283 210.53 232.333 210.047 232.237C209.564 232.14 209.12 231.903 208.771 231.555C208.423 231.206 208.186 230.763 208.09 230.279C207.994 229.796 208.043 229.295 208.231 228.84C208.42 228.385 208.739 227.996 209.149 227.722C209.559 227.449 210.04 227.303 210.533 227.303C210.86 227.303 211.184 227.367 211.486 227.492C211.788 227.617 212.063 227.801 212.294 228.032C212.525 228.263 212.709 228.538 212.834 228.84C212.959 229.142 213.024 229.466 213.024 229.794Z" fill="#E0E0E0"/>
<path d="M128.437 258.605C129.812 258.605 130.927 257.49 130.927 256.114C130.927 254.739 129.812 253.623 128.437 253.623C127.061 253.623 125.946 254.739 125.946 256.114C125.946 257.49 127.061 258.605 128.437 258.605Z" fill="#E0E0E0"/>
<path d="M213.024 256.135C213.024 256.627 212.878 257.109 212.604 257.519C212.33 257.928 211.941 258.248 211.486 258.436C211.031 258.625 210.53 258.674 210.047 258.578C209.564 258.482 209.12 258.244 208.771 257.896C208.423 257.548 208.186 257.104 208.09 256.621C207.994 256.138 208.043 255.637 208.231 255.182C208.42 254.726 208.739 254.337 209.149 254.064C209.559 253.79 210.04 253.644 210.533 253.644C211.193 253.644 211.827 253.906 212.294 254.373C212.761 254.841 213.024 255.474 213.024 256.135Z" fill="#E0E0E0"/>
<path d="M171.976 229.794C171.976 230.286 171.829 230.768 171.556 231.177C171.282 231.587 170.893 231.906 170.438 232.095C169.983 232.283 169.482 232.333 168.999 232.237C168.516 232.14 168.072 231.903 167.723 231.555C167.375 231.206 167.138 230.763 167.042 230.279C166.946 229.796 166.995 229.295 167.183 228.84C167.372 228.385 167.691 227.996 168.101 227.722C168.51 227.449 168.992 227.303 169.485 227.303C169.812 227.303 170.136 227.367 170.438 227.492C170.74 227.617 171.015 227.801 171.246 228.032C171.477 228.263 171.661 228.538 171.786 228.84C171.911 229.142 171.976 229.466 171.976 229.794Z" fill="#E0E0E0"/>
<path d="M169.485 258.605C170.86 258.605 171.976 257.49 171.976 256.114C171.976 254.739 170.86 253.623 169.485 253.623C168.109 253.623 166.994 254.739 166.994 256.114C166.994 257.49 168.109 258.605 169.485 258.605Z" fill="#E0E0E0"/>
<path d="M220.91 205.413C220.91 207.942 219.906 210.368 218.117 212.156C216.329 213.945 213.904 214.95 211.375 214.95C208.846 214.95 206.42 213.945 204.632 212.156C202.843 210.368 201.839 207.942 201.839 205.413H220.91Z" fill="#F0F0F0"/>
<path d="M145.514 203.687C145.514 206.669 144.33 209.528 142.222 211.637C140.114 213.745 137.255 214.929 134.274 214.929C131.293 214.929 128.434 213.745 126.326 211.637C124.218 209.528 123.034 206.669 123.034 203.687H145.514Z" fill="#F0F0F0"/>
<path d="M193.835 208.332C193.835 210.087 193.138 211.77 191.897 213.011C190.656 214.253 188.973 214.95 187.218 214.95C185.463 214.95 183.78 214.253 182.539 213.011C181.298 211.77 180.601 210.087 180.601 208.332H193.835Z" fill="#F0F0F0"/>
<path d="M172.5 303.449C246.387 303.449 306.284 299.951 306.284 295.637C306.284 291.322 246.387 287.825 172.5 287.825C98.6131 287.825 38.7159 291.322 38.7159 295.637C38.7159 299.951 98.6131 303.449 172.5 303.449Z" fill="#F5F5F5"/>
<path d="M88.6243 88.8337C90.094 87.3638 92.9229 81.7947 90.2112 79.1723C87.4995 76.5499 85.0846 78.9308 84.8983 80.2074C84.712 81.4841 85.2088 92.2428 88.6243 88.8337Z" fill="#263238"/>
<path d="M89.2452 289.165L95.4069 289.22L97.0836 274.976L90.9288 274.921L89.2452 289.165Z" fill="#FF8B7B"/>
<path d="M95.4139 288.509L88.6933 288.447C88.5693 288.449 88.4491 288.49 88.3499 288.565C88.2508 288.639 88.1777 288.743 88.1413 288.861L86.5129 294.32C86.4696 294.447 86.4576 294.583 86.4778 294.715C86.4981 294.848 86.55 294.974 86.6292 295.082C86.7084 295.191 86.8126 295.278 86.9329 295.338C87.0531 295.397 87.186 295.427 87.3202 295.424C89.7421 295.424 93.2611 295.293 96.2902 295.321C99.8506 295.321 101.438 295.569 105.619 295.611C108.144 295.611 109.069 293.085 107.999 292.85C103.259 291.753 100.81 291.608 96.8422 289.006C96.4246 288.705 95.9282 288.532 95.4139 288.509Z" fill="#263238"/>
<path opacity="0.2" d="M97.0836 274.983L96.2142 282.326L90.0594 282.271L90.9219 274.928L97.0836 274.983Z" fill="black"/>
<path d="M97.96 289.606C97.2956 289.594 96.6342 289.514 95.9865 289.365C95.9559 289.36 95.9277 289.346 95.9064 289.323C95.8851 289.301 95.872 289.272 95.8693 289.241C95.8664 289.211 95.8729 289.181 95.8877 289.155C95.9025 289.129 95.925 289.108 95.9521 289.096C96.2419 288.951 98.8294 287.716 99.5401 288.15C99.6058 288.192 99.6594 288.251 99.6957 288.32C99.732 288.389 99.7497 288.466 99.7471 288.544C99.7487 288.677 99.7196 288.808 99.6622 288.928C99.6047 289.047 99.5204 289.152 99.4158 289.234C98.9843 289.514 98.4729 289.645 97.96 289.606ZM96.4833 289.165C97.815 289.399 98.8293 289.351 99.2433 289.02C99.3151 288.964 99.372 288.891 99.4093 288.808C99.4466 288.725 99.463 288.635 99.4572 288.544C99.4613 288.515 99.4569 288.487 99.4447 288.461C99.4324 288.435 99.4128 288.414 99.3883 288.399C99.0019 288.164 97.539 288.716 96.4833 289.165Z" fill="#407BFF"/>
<path d="M96.0142 289.406C95.9815 289.404 95.9503 289.392 95.9245 289.371C95.9036 289.356 95.8879 289.334 95.8793 289.31C95.8707 289.285 95.8696 289.259 95.8761 289.233C95.8761 289.123 96.3592 286.473 97.822 286.639C98.2084 286.68 98.3188 286.881 98.3395 287.032C98.443 287.722 96.8629 289.061 96.0763 289.392L96.0142 289.406ZM97.6978 286.922C96.8146 286.922 96.3729 288.364 96.2211 288.992C97.0353 288.537 98.1118 287.488 98.0497 287.074C98.0497 287.074 98.0497 286.956 97.7875 286.929L97.6978 286.922Z" fill="#407BFF"/>
<path d="M93.5992 119.937L94.234 120.627L94.8274 121.214C95.2207 121.6 95.6278 121.966 96.0349 122.325C96.8445 123.052 97.6725 123.742 98.5189 124.395C100.227 125.753 102.025 126.994 103.901 128.108C104.846 128.667 105.819 129.198 106.806 129.702C107.792 130.206 108.834 130.641 109.883 131.082C112.034 131.941 114.274 132.554 116.562 132.911L117.073 132.987C117.405 133.03 117.739 133.051 118.073 133.049C118.842 133.042 119.602 132.892 120.316 132.608C121.024 132.323 121.672 131.909 122.227 131.386C122.67 130.964 123.055 130.486 123.373 129.965C123.813 129.207 124.145 128.392 124.359 127.542C124.527 126.884 124.649 126.216 124.725 125.541C124.851 124.375 124.885 123.2 124.829 122.028C124.78 120.91 124.691 119.834 124.566 118.778C124.304 116.659 123.932 114.637 123.476 112.567C123.021 110.497 122.503 108.585 121.834 106.584L117.301 107.481C117.466 111.359 117.653 115.334 117.528 119.089C117.506 120.832 117.321 122.569 116.976 124.278C116.908 124.594 116.814 124.903 116.693 125.203C116.597 125.437 116.48 125.582 116.486 125.52C116.527 125.415 116.59 125.321 116.673 125.244C116.861 125.063 117.08 124.917 117.321 124.816C117.569 124.712 117.833 124.649 118.101 124.63C118.225 124.63 118.28 124.63 118.356 124.63H118.28L118.136 124.589C116.501 124.169 114.911 123.591 113.388 122.863C111.795 122.094 110.253 121.223 108.772 120.255C107.275 119.261 105.798 118.184 104.377 117.046C103.687 116.48 102.962 115.886 102.307 115.286L101.3 114.375L100.817 113.927L100.396 113.526L93.5992 119.937Z" fill="#FF8B7B"/>
<path d="M89.9491 117.501C90.1837 110.994 95.5243 108.73 102.217 113.167C105.168 115.038 108.008 117.078 110.725 119.275L106.399 133.173C106.399 133.173 98.1187 130.544 93.3301 125.382C90.1078 121.876 89.8663 119.716 89.9491 117.501Z" fill="#263238"/>
<path opacity="0.2" d="M98.098 120.275C98.098 120.275 102.093 125.989 103.508 132.062C101.543 131.225 99.6511 130.228 97.8496 129.081L98.098 120.275Z" fill="black"/>
<path d="M117.528 109.544L115.21 104.306L121.772 102.388C121.772 102.388 122.897 104.893 122.255 109.192L117.528 109.544Z" fill="#FF8B7B"/>
<path d="M114.513 98.1646L120.219 98.8476L121.772 102.387L115.21 104.306L114.513 98.1646Z" fill="#FF8B7B"/>
<path d="M98.0566 164.677C98.0566 164.677 102.293 200.19 102.762 219.195C103.245 238.939 99.3745 278.765 99.3745 278.765L88.2586 278.531C88.2586 278.531 86.92 235.896 85.3054 216.359C83.5528 195.062 79.1368 164.29 79.1368 164.29L98.0566 164.677Z" fill="#407BFF"/>
<path opacity="0.6" d="M98.0566 164.677C98.0566 164.677 102.293 200.19 102.762 219.195C103.245 238.939 99.3745 278.765 99.3745 278.765L88.2586 278.531C88.2586 278.531 86.92 235.896 85.3054 216.359C83.5528 195.062 79.1368 164.29 79.1368 164.29L98.0566 164.677Z" fill="white"/>
<path opacity="0.2" d="M84.8154 174.732C89.7834 185.684 88.4518 210.148 85.6297 220.637C85.5262 219.112 85.4158 217.67 85.3054 216.338C84.1531 202.301 81.8553 184.158 80.3994 173.414C81.7518 171.454 83.2629 171.302 84.8154 174.732Z" fill="black"/>
<path d="M86.8924 279.006L99.961 279.268L100.927 274.928L87.0511 274.893L86.8924 279.006Z" fill="#407BFF"/>
<path d="M61.7902 289.165L67.945 289.22L69.6217 274.976L63.4669 274.921L61.7902 289.165Z" fill="#FF8B7B"/>
<path d="M67.9588 288.509L61.2313 288.447C61.1076 288.45 60.9879 288.492 60.8889 288.566C60.7899 288.64 60.7166 288.743 60.6793 288.861L59.0509 294.32C59.0092 294.447 58.9984 294.582 59.0194 294.714C59.0403 294.846 59.0924 294.971 59.1713 295.079C59.2502 295.187 59.3536 295.275 59.4731 295.335C59.5925 295.395 59.7245 295.425 59.8582 295.424C62.287 295.424 65.7991 295.293 68.8282 295.321C72.3886 295.321 73.9825 295.569 78.157 295.611C80.6824 295.611 81.607 293.085 80.5375 292.85C75.8041 291.753 73.3546 291.608 69.3802 289.006C68.9651 288.705 68.471 288.532 67.9588 288.509Z" fill="#263238"/>
<path opacity="0.2" d="M69.6217 274.983L68.7592 282.326L62.5975 282.271L63.46 274.928L69.6217 274.983Z" fill="black"/>
<path d="M70.4979 289.606C69.8336 289.594 69.1723 289.513 68.5245 289.365C68.4946 289.36 68.4673 289.345 68.4472 289.322C68.427 289.3 68.4154 289.271 68.4141 289.241C68.4097 289.212 68.4147 289.182 68.4283 289.156C68.442 289.13 68.4636 289.109 68.4901 289.096C68.7868 288.951 71.3742 287.716 72.078 288.15C72.1447 288.191 72.1992 288.249 72.2356 288.319C72.272 288.388 72.2891 288.466 72.2851 288.544C72.2865 288.676 72.258 288.806 72.2019 288.926C72.1457 289.045 72.0633 289.151 71.9608 289.234C71.5263 289.513 71.013 289.644 70.4979 289.606ZM69.0213 289.165C70.353 289.399 71.3673 289.351 71.7813 289.02C71.8526 288.963 71.9096 288.891 71.948 288.808C71.9863 288.725 72.0048 288.635 72.0022 288.544C72.0062 288.515 72.0018 288.487 71.9895 288.461C71.9773 288.435 71.9576 288.414 71.9331 288.399C71.5467 288.164 70.0977 288.716 69.0213 289.165Z" fill="#407BFF"/>
<path d="M68.559 289.406C68.5378 289.405 68.517 289.4 68.4979 289.391C68.4788 289.381 68.4619 289.368 68.4482 289.352C68.4346 289.336 68.4245 289.317 68.4186 289.296C68.4127 289.276 68.4112 289.254 68.4141 289.233C68.4141 289.123 68.8971 286.473 70.3599 286.639C70.7463 286.68 70.8567 286.881 70.8843 287.032C70.9809 287.722 69.4008 289.061 68.6142 289.392L68.559 289.406ZM70.2357 286.922C69.3594 286.922 68.9109 288.364 68.7591 288.992C69.5733 288.537 70.6566 287.488 70.5945 287.074C70.5945 287.074 70.5945 286.956 70.3323 286.929L70.2357 286.922Z" fill="#407BFF"/>
<path d="M87.2097 164.442C87.2097 164.442 84.1392 202.653 81.8967 221.507C79.5714 241.12 71.9124 278.744 71.9124 278.744L60.7965 278.51C60.7965 278.51 63.8463 235.792 65.0262 216.221C66.3165 194.862 66.6477 163.973 66.6477 163.973L87.2097 164.442Z" fill="#407BFF"/>
<path opacity="0.6" d="M87.2097 164.442C87.2097 164.442 84.1392 202.653 81.8967 221.507C79.5714 241.12 71.9124 278.744 71.9124 278.744L60.7965 278.51C60.7965 278.51 63.8463 235.792 65.0262 216.221C66.3165 194.862 66.6477 163.973 66.6477 163.973L87.2097 164.442Z" fill="white"/>
<path d="M59.4304 279.006L72.5059 279.268L73.465 274.928L59.5891 274.893L59.4304 279.006Z" fill="#407BFF"/>
<path d="M98.8224 111.463C98.8224 111.463 103.37 128.343 98.0565 164.677C88.1343 164.463 71.4709 164.076 66.6478 163.987C66.5236 158.928 70.2564 134.126 65.8887 110.214C69.031 109.671 72.2091 109.362 75.3969 109.289C80.0633 109.119 84.7356 109.22 89.3901 109.593C92.5781 109.97 95.7317 110.595 98.8224 111.463Z" fill="#263238"/>
<path opacity="0.2" d="M67.7932 127.232L72.9337 122.974C72.5956 126.3 69.5872 134.45 68.0002 138.577C68.0278 134.961 67.9933 131.145 67.7932 127.232Z" fill="black"/>
<path d="M86.1816 121.248L91.7913 132.352C91.9098 132.586 91.9513 132.85 91.9097 133.108C91.8681 133.367 91.7457 133.605 91.56 133.789C91.3744 133.973 91.135 134.094 90.8765 134.133C90.618 134.173 90.3537 134.129 90.1215 134.009L86.4576 131.994C86.2585 131.886 86.0332 131.837 85.8075 131.852C85.5818 131.867 85.3648 131.944 85.1811 132.076L81.5724 134.678C81.3652 134.829 81.1149 134.909 80.8586 134.906C80.6023 134.904 80.3537 134.819 80.1494 134.664C79.9451 134.509 79.796 134.293 79.7242 134.047C79.6525 133.801 79.6618 133.538 79.7508 133.298L83.9667 121.442C84.04 121.216 84.178 121.017 84.3636 120.87C84.5491 120.722 84.774 120.632 85.0102 120.612C85.2464 120.591 85.4835 120.641 85.6918 120.754C85.9001 120.867 86.0705 121.039 86.1816 121.248Z" fill="white"/>
<path d="M77.122 93.527C77.9086 98.0541 78.6124 106.322 75.397 109.255C75.397 109.255 76.3354 113.354 84.8983 114.775C90.6529 112.926 89.3902 109.586 89.3902 109.586C84.3946 108.275 84.6085 104.555 85.5538 101.077L77.122 93.527Z" fill="#FF8B7B"/>
<path opacity="0.2" d="M80.5581 96.598L85.5537 101.042C85.3212 101.853 85.1596 102.682 85.0707 103.52C83.1525 103.202 80.565 101.035 80.4063 99.0272C80.3085 98.215 80.36 97.3917 80.5581 96.598Z" fill="black"/>
<path d="M74.3826 87.9574C76.0455 93.8371 76.7148 97.3635 80.3856 99.7719C85.9057 103.388 92.6746 99.0818 92.8057 92.8088C92.9299 87.1776 90.1974 78.503 83.8356 77.3988C82.4383 77.1509 81.0008 77.2639 79.6593 77.7272C78.3178 78.1905 77.1168 78.9886 76.1701 80.0461C75.2234 81.1035 74.5623 82.3852 74.2495 83.7697C73.9367 85.1541 73.9825 86.5956 74.3826 87.9574Z" fill="#FF8B7B"/>
<path d="M77.9223 91.5593C78.6951 89.6822 79.2541 83.4988 76.0318 81.9805C72.8095 80.4623 69.463 84.1682 70.3117 85.9211C71.6158 88.6401 76.1284 95.9069 77.9223 91.5593Z" fill="#263238"/>
<path d="M75.9972 84.1621C76.7907 82.0918 86.2506 80.9186 87.5754 78.6895C89.1486 76.0395 82.6971 75.722 78.2604 77.0678C74.3619 78.2548 71.7607 79.4003 72.2161 82.2988C72.4714 83.9413 75.9972 84.1621 75.9972 84.1621Z" fill="#263238"/>
<path d="M73.941 82.0287C73.941 82.0287 71.871 82.5945 70.7394 81.0765C71.0982 82.5807 72.8577 84.0987 73.941 82.0287Z" fill="#263238"/>
<path d="M83.4147 75.6464C86.2575 73.4381 90.1284 76.0329 89.7627 78.9106C89.397 81.7883 79.8129 83.976 79.8129 83.976C79.8129 83.976 79.6404 78.5793 83.4147 75.6464Z" fill="#263238"/>
<path d="M89.7559 78.9238C89.3212 80.9386 87.8515 82.5187 84.8776 83.6917C86.5988 82.4189 87.9029 80.6633 88.6243 78.6478L89.7559 78.9238Z" fill="#263238"/>
<path d="M83.7873 87.6609C83.8908 88.1508 84.2289 88.4889 84.5463 88.4199C84.8637 88.3509 85.0362 87.8955 84.9327 87.4125C84.8292 86.9295 84.4842 86.5914 84.1668 86.6604C83.8494 86.7294 83.6769 87.2055 83.7873 87.6609Z" fill="#263238"/>
<path d="M89.266 86.474C89.3764 86.957 89.7145 87.2951 90.0319 87.2261C90.3493 87.1571 90.5218 86.7086 90.4183 86.2256C90.3148 85.7426 89.9698 85.4045 89.6524 85.4666C89.335 85.5287 89.1625 85.991 89.266 86.474Z" fill="#263238"/>
<path d="M87.5754 87.0952C88.4762 88.4526 89.5606 89.6786 90.7977 90.7384C90.1077 91.7251 88.569 91.6768 88.569 91.6768L87.5754 87.0952Z" fill="#FF5652"/>
<path d="M87.4513 93.3266C86.8034 93.4875 86.1261 93.4893 85.4773 93.332C84.8286 93.1746 84.2275 92.8626 83.7253 92.4227C83.7115 92.4092 83.7006 92.3931 83.6931 92.3753C83.6856 92.3575 83.6818 92.3385 83.6818 92.3192C83.6818 92.2999 83.6856 92.2808 83.6931 92.263C83.7006 92.2453 83.7115 92.2292 83.7253 92.2157C83.7534 92.1895 83.7904 92.1749 83.8288 92.1749C83.8672 92.1749 83.9042 92.1895 83.9323 92.2157C84.4034 92.6122 84.9608 92.893 85.5599 93.0355C86.1589 93.1781 86.783 93.1785 87.3823 93.0368C87.4207 93.0285 87.4608 93.0359 87.4938 93.0573C87.5268 93.0786 87.55 93.1122 87.5582 93.1506C87.5665 93.1891 87.5591 93.2292 87.5377 93.2622C87.5164 93.2952 87.4828 93.3183 87.4444 93.3266H87.4513Z" fill="#263238"/>
<path d="M81.7519 86.2531C81.6989 86.2637 81.6441 86.2596 81.5933 86.2413C81.5425 86.2231 81.4976 86.1913 81.4635 86.1494C81.4295 86.1075 81.4075 86.0571 81.3999 86.0036C81.3924 85.9502 81.3995 85.8957 81.4207 85.846C81.607 85.421 81.892 85.0466 82.252 84.7538C82.612 84.461 83.0367 84.2582 83.4907 84.1624C83.5674 84.1524 83.6449 84.1729 83.7068 84.2193C83.7686 84.2657 83.8099 84.3344 83.8219 84.4108C83.8278 84.4484 83.8262 84.4868 83.8173 84.5238C83.8083 84.5608 83.7922 84.5956 83.7697 84.6264C83.7473 84.6572 83.719 84.6832 83.6866 84.703C83.6541 84.7228 83.618 84.7361 83.5804 84.742C83.2224 84.8206 82.8884 84.9838 82.6063 85.2179C82.3242 85.452 82.1022 85.7501 81.9589 86.0875C81.9396 86.1292 81.9108 86.1659 81.8749 86.1947C81.839 86.2234 81.7969 86.2434 81.7519 86.2531Z" fill="#263238"/>
<path d="M91.267 84.0654C91.2128 84.0804 91.1554 84.0785 91.1024 84.06C91.0494 84.0415 91.0033 84.0073 90.9703 83.9619C90.7518 83.6688 90.4675 83.4311 90.1403 83.2681C89.8131 83.1051 89.4521 83.0213 89.0866 83.0235C89.0097 83.0308 88.9331 83.0073 88.8736 82.9581C88.814 82.909 88.7765 82.8382 88.7692 82.7613C88.7618 82.6844 88.7853 82.6078 88.8345 82.5483C88.8837 82.4888 88.9545 82.4512 89.0314 82.4439C89.4943 82.4302 89.9537 82.5284 90.3705 82.7302C90.7873 82.932 91.1493 83.2314 91.4257 83.6031C91.4501 83.6326 91.4684 83.6668 91.4792 83.7036C91.4901 83.7403 91.4933 83.7789 91.4888 83.817C91.4843 83.8551 91.4721 83.8918 91.4529 83.925C91.4338 83.9583 91.4081 83.9872 91.3774 84.0102C91.346 84.0378 91.3079 84.0569 91.267 84.0654Z" fill="#263238"/>
<path d="M64.3846 114.92C63.1288 117.115 62.0799 119.24 60.9897 121.428C59.8995 123.616 58.9198 125.817 57.9883 128.067C57.0568 130.317 56.1528 132.601 55.3662 134.968C54.5484 137.328 53.8574 139.731 53.2963 142.166L52.8754 144.05C52.6913 144.934 52.6125 145.838 52.6408 146.741C52.6993 148.419 53.0714 150.072 53.7379 151.613C54.9094 154.21 56.5758 156.554 58.6437 158.514C60.4883 160.295 62.4984 161.897 64.6468 163.297C65.6887 163.987 66.765 164.622 67.8483 165.229C68.9316 165.836 70.008 166.395 71.2155 166.927L73.5063 162.917C72.6714 162.227 71.7537 161.537 70.8981 160.792C70.0426 160.046 69.2077 159.287 68.3797 158.528C66.7808 157.045 65.2976 155.441 63.9429 153.732C62.7383 152.266 61.8037 150.598 61.1829 148.804C60.9694 148.136 60.8851 147.434 60.9346 146.734C60.9547 146.453 61.008 146.175 61.0933 145.906L61.5625 144.36C62.9567 140.072 64.6159 135.875 66.5304 131.793C67.4757 129.723 68.4831 127.653 69.4905 125.582C70.4979 123.512 71.5605 121.442 72.5886 119.475L64.3846 114.92Z" fill="#FF8B7B"/>
<path d="M65.6542 110.248C59.8996 111.49 55.8976 126.507 55.8976 126.507L66.1855 135.844C69.4564 132.205 72.0293 127.994 73.7755 123.422C76.501 115.907 71.809 108.909 65.6542 110.248Z" fill="#263238"/>
<path d="M72.2575 162.206L78.8746 162.275L74.7346 168.949C74.7346 168.949 70.0219 167.782 69.601 165.415L72.2575 162.206Z" fill="#FF8B7B"/>
<path d="M82.9939 166.216L79.3438 171.571L74.7691 168.949L78.8746 162.275L82.9939 166.216Z" fill="#FF8B7B"/>
<path d="M72.5749 93.3405C73.31 94.6934 74.5502 95.7006 76.0249 96.1424C77.9845 96.7151 78.985 94.9692 78.4606 93.1128C77.9845 91.4428 76.3906 89.1309 74.431 89.3725C72.4714 89.614 71.6986 91.6774 72.5749 93.3405Z" fill="#FF8B7B"/>
<path d="M181.162 86.2916L173.788 86.448L173.802 87.1378L181.177 86.9815L181.162 86.2916Z" fill="#407BFF"/>
<path d="M187.788 86.1539L184.167 86.2307L184.181 86.9206L187.803 86.8438L187.788 86.1539Z" fill="#407BFF"/>
<path d="M223.639 6.87759L101.522 9.41195C98.9797 9.47968 96.5666 10.5474 94.8065 12.3834C93.0463 14.2194 92.0811 16.6756 92.1204 19.2189L93.3147 76.7855C93.3805 79.3319 94.4491 81.7493 96.288 83.5117C98.1269 85.2741 100.587 86.2388 103.134 86.1961L110.05 86.0532C110.553 86.0428 111.039 86.2323 111.402 86.5799C111.765 86.9276 111.975 87.4051 111.986 87.9076L112.213 98.5746C112.215 98.781 112.279 98.9821 112.396 99.1521C112.514 99.3221 112.679 99.4531 112.871 99.5283C113.063 99.6035 113.274 99.6196 113.475 99.5743C113.677 99.5291 113.86 99.4246 114.002 99.2743L126.221 86.53C126.734 85.9963 127.438 85.6872 128.179 85.6699L225.23 83.6606C227.774 83.5947 230.188 82.5278 231.95 80.6917C233.712 78.8555 234.678 76.3985 234.639 73.8541L233.444 16.2874C233.378 13.7436 232.312 11.3285 230.476 9.56664C228.64 7.80479 226.183 6.83849 223.639 6.87759Z" fill="#407BFF"/>
<path d="M117.944 36.6508L124.542 36.5124L124.698 43.9833L131.905 43.8346L131.749 36.3638L138.376 36.2199L138.822 57.5672L132.196 57.7042L132.017 49.0713L124.81 49.2268L124.989 57.8597L118.397 57.9985L117.944 36.6508Z" fill="white"/>
<path opacity="0.2" d="M101.522 9.41104C98.9798 9.47877 96.5667 10.5465 94.8065 12.3825C93.0464 14.2186 92.0812 16.6747 92.1204 19.218L93.3148 76.7851C93.3805 79.3315 94.4491 81.7489 96.2881 83.5113C98.127 85.2737 100.587 86.2385 103.134 86.1957L104.151 86.1719C105.84 86.1365 107.471 85.5444 108.789 84.4875C110.107 83.4306 111.04 81.968 111.443 80.3267L129.002 8.83699L101.522 9.41104Z" fill="black"/>
<path d="M159.844 50.8646L147.962 51.1121C148.013 51.8837 148.299 52.6213 148.779 53.227C149.056 53.5502 149.404 53.8049 149.796 53.9712C150.188 54.1375 150.613 54.211 151.038 54.1858C151.62 54.1741 152.19 54.013 152.692 53.7179C153.087 53.4494 153.43 53.111 153.704 52.7195L159.555 53.137C158.844 54.5487 157.746 55.729 156.389 56.5402C155.146 57.2412 153.345 57.6095 150.985 57.6451C149.331 57.7522 147.673 57.4901 146.133 56.878C144.903 56.2857 143.869 55.3524 143.154 54.1892C142.335 52.8647 141.903 51.3366 141.909 49.7789C141.841 48.6935 142.002 47.6059 142.38 46.5863C142.758 45.5666 143.346 44.6376 144.105 43.8591C145.621 42.3337 147.734 41.5415 150.445 41.4824C152.245 41.3616 154.047 41.6671 155.706 42.3741C156.972 42.9937 158.015 43.9912 158.689 45.229C159.456 46.7626 159.843 48.4579 159.818 50.1723L159.844 50.8646ZM153.765 48.1482C153.728 47.2476 153.384 46.3868 152.792 45.7074C152.489 45.4487 152.137 45.255 151.756 45.1383C151.376 45.0216 150.975 44.9843 150.58 45.0289C150.184 45.0734 149.802 45.1987 149.457 45.3971C149.112 45.5954 148.811 45.8626 148.574 46.182C148.173 46.8116 147.949 47.5379 147.927 48.2841L153.765 48.1482Z" fill="white"/>
<path d="M162.451 35.72L168.393 35.5963L168.84 56.9368L162.898 57.0606L162.451 35.72Z" fill="white"/>
<path d="M172.377 35.5102L178.318 35.3865L178.765 56.7271L172.831 56.8512L172.377 35.5102Z" fill="white"/>
<path d="M181.663 48.9774C181.607 47.893 181.779 46.8088 182.169 45.7954C182.559 44.7821 183.158 43.8622 183.927 43.0956C185.486 41.5309 187.621 40.7191 190.332 40.66C193.421 40.5974 195.778 41.446 197.401 43.2061C198.744 44.7761 199.463 46.7847 199.422 48.8502C199.381 50.9158 198.583 52.8943 197.179 54.4098C195.635 55.9614 193.47 56.7717 190.684 56.8407C188.515 56.9888 186.364 56.3644 184.612 55.0781C183.681 54.3591 182.931 53.4337 182.419 52.375C181.907 51.3163 181.649 50.1532 181.663 48.9774ZM187.605 48.8399C187.538 49.9272 187.858 51.0032 188.506 51.8782C188.771 52.1783 189.097 52.4173 189.463 52.5787C189.829 52.7401 190.226 52.82 190.626 52.8129C191.026 52.8058 191.42 52.7119 191.78 52.5376C192.14 52.3633 192.457 52.1129 192.711 51.8036C193.317 50.8727 193.584 49.7614 193.467 48.6568C193.528 47.5911 193.213 46.5378 192.576 45.6812C192.325 45.3765 192.008 45.1335 191.648 44.9713C191.289 44.809 190.897 44.7319 190.503 44.7457C190.092 44.7438 189.687 44.8364 189.318 45.0164C188.95 45.1964 188.627 45.459 188.377 45.7837C187.774 46.6824 187.51 47.7661 187.633 48.8413L187.605 48.8399Z" fill="white"/>
<path d="M202.007 34.8875L208.336 34.756L208.44 39.5984L207.42 49.393L203.505 49.4755L202.104 39.7296L202.007 34.8875ZM202.563 51.0027L208.47 50.8773L208.582 56.1071L202.668 56.2253L202.563 51.0027Z" fill="white"/>
</svg>
